<mxfile host="app.diagrams.net" agent="Mozilla/5.0 (Windows NT 10.0; Win64; x64) AppleWebKit/537.36 (KHTML, like Gecko) Chrome/135.0.0.0 Safari/537.36 Edg/135.0.0.0" version="26.2.15">
  <diagram id="R2lEEEUBdFMjLlhIrx00" name="Page-1">
    <mxGraphModel dx="1628" dy="1782" grid="1" gridSize="10" guides="1" tooltips="1" connect="1" arrows="1" fold="1" page="1" pageScale="1" pageWidth="850" pageHeight="1100" math="0" shadow="0" extFonts="Permanent Marker^https://fonts.googleapis.com/css?family=Permanent+Marker">
      <root>
        <mxCell id="0" />
        <mxCell id="1" parent="0" />
        <mxCell id="MtWuQG_OQLCqCNwVCw_5-1" value="翻译项目表" style="rounded=1;whiteSpace=wrap;html=1;" parent="1" vertex="1">
          <mxGeometry x="170" y="355" width="120" height="60" as="geometry" />
        </mxCell>
        <mxCell id="MtWuQG_OQLCqCNwVCw_5-18" value="项目ID" style="ellipse;whiteSpace=wrap;html=1;align=center;verticalAlign=top;spacingLeft=4;spacingRight=4;fontFamily=Helvetica;fontSize=12;fontColor=default;resizable=0;fillColor=none;" parent="1" vertex="1">
          <mxGeometry x="65" y="220" width="100" height="40" as="geometry" />
        </mxCell>
        <mxCell id="MtWuQG_OQLCqCNwVCw_5-19" value="项目名" style="ellipse;whiteSpace=wrap;html=1;align=center;verticalAlign=top;spacingLeft=4;spacingRight=4;fontFamily=Helvetica;fontSize=12;fontColor=default;resizable=0;fillColor=none;" parent="1" vertex="1">
          <mxGeometry x="60" y="290" width="100" height="40" as="geometry" />
        </mxCell>
        <mxCell id="MtWuQG_OQLCqCNwVCw_5-21" value="创建时间" style="ellipse;whiteSpace=wrap;html=1;align=center;verticalAlign=top;spacingLeft=4;spacingRight=4;fontFamily=Helvetica;fontSize=12;fontColor=default;resizable=0;fillColor=none;" parent="1" vertex="1">
          <mxGeometry x="20" y="340" width="100" height="40" as="geometry" />
        </mxCell>
        <mxCell id="MtWuQG_OQLCqCNwVCw_5-28" value="项目状态" style="ellipse;whiteSpace=wrap;html=1;align=center;verticalAlign=top;spacingLeft=4;spacingRight=4;fontFamily=Helvetica;fontSize=12;fontColor=default;resizable=0;fillColor=none;" parent="1" vertex="1">
          <mxGeometry x="30" y="405" width="100" height="40" as="geometry" />
        </mxCell>
        <mxCell id="MtWuQG_OQLCqCNwVCw_5-32" value="" style="endArrow=none;html=1;rounded=0;fontFamily=Helvetica;fontSize=12;fontColor=default;resizable=0;exitX=0.5;exitY=1;exitDx=0;exitDy=0;" parent="1" source="MtWuQG_OQLCqCNwVCw_5-18" target="MtWuQG_OQLCqCNwVCw_5-1" edge="1">
          <mxGeometry relative="1" as="geometry">
            <mxPoint x="130" y="455" as="sourcePoint" />
            <mxPoint x="290" y="455" as="targetPoint" />
          </mxGeometry>
        </mxCell>
        <mxCell id="MtWuQG_OQLCqCNwVCw_5-34" value="" style="endArrow=none;html=1;rounded=0;fontFamily=Helvetica;fontSize=12;fontColor=default;resizable=0;entryX=0;entryY=0.75;entryDx=0;entryDy=0;" parent="1" source="MtWuQG_OQLCqCNwVCw_5-21" target="MtWuQG_OQLCqCNwVCw_5-1" edge="1">
          <mxGeometry relative="1" as="geometry">
            <mxPoint x="130" y="455" as="sourcePoint" />
            <mxPoint x="290" y="455" as="targetPoint" />
          </mxGeometry>
        </mxCell>
        <mxCell id="MtWuQG_OQLCqCNwVCw_5-35" value="" style="endArrow=none;html=1;rounded=0;fontFamily=Helvetica;fontSize=12;fontColor=default;resizable=0;exitX=0.5;exitY=1;exitDx=0;exitDy=0;entryX=0;entryY=0.5;entryDx=0;entryDy=0;" parent="1" source="MtWuQG_OQLCqCNwVCw_5-19" target="MtWuQG_OQLCqCNwVCw_5-1" edge="1">
          <mxGeometry relative="1" as="geometry">
            <mxPoint x="130" y="455" as="sourcePoint" />
            <mxPoint x="290" y="455" as="targetPoint" />
          </mxGeometry>
        </mxCell>
        <mxCell id="MtWuQG_OQLCqCNwVCw_5-36" value="" style="endArrow=none;html=1;rounded=0;fontFamily=Helvetica;fontSize=12;fontColor=default;resizable=0;entryX=0.386;entryY=0.967;entryDx=0;entryDy=0;entryPerimeter=0;" parent="1" source="MtWuQG_OQLCqCNwVCw_5-28" target="MtWuQG_OQLCqCNwVCw_5-1" edge="1">
          <mxGeometry relative="1" as="geometry">
            <mxPoint x="130" y="455" as="sourcePoint" />
            <mxPoint x="290" y="455" as="targetPoint" />
          </mxGeometry>
        </mxCell>
        <mxCell id="MtWuQG_OQLCqCNwVCw_5-37" value="" style="endArrow=none;html=1;rounded=0;fontFamily=Helvetica;fontSize=12;fontColor=default;resizable=0;exitX=0.5;exitY=1;exitDx=0;exitDy=0;entryX=0.5;entryY=0;entryDx=0;entryDy=0;" parent="1" source="GQLATtN6Gv0IoLlRFun3-109" target="MtWuQG_OQLCqCNwVCw_5-1" edge="1">
          <mxGeometry relative="1" as="geometry">
            <mxPoint x="310" y="250" as="sourcePoint" />
            <mxPoint x="290" y="455" as="targetPoint" />
          </mxGeometry>
        </mxCell>
        <mxCell id="MtWuQG_OQLCqCNwVCw_5-39" value="文档表" style="rounded=1;whiteSpace=wrap;html=1;" parent="1" vertex="1">
          <mxGeometry x="500" y="355" width="120" height="60" as="geometry" />
        </mxCell>
        <mxCell id="MtWuQG_OQLCqCNwVCw_5-40" value="文档ID" style="ellipse;whiteSpace=wrap;html=1;align=center;verticalAlign=top;spacingLeft=4;spacingRight=4;fontFamily=Helvetica;fontSize=12;fontColor=default;resizable=0;fillColor=none;" parent="1" vertex="1">
          <mxGeometry x="620" y="230" width="100" height="40" as="geometry" />
        </mxCell>
        <mxCell id="MtWuQG_OQLCqCNwVCw_5-41" value="文档名" style="ellipse;whiteSpace=wrap;html=1;align=center;verticalAlign=top;spacingLeft=4;spacingRight=4;fontFamily=Helvetica;fontSize=12;fontColor=default;resizable=0;fillColor=none;" parent="1" vertex="1">
          <mxGeometry x="670" y="270" width="100" height="40" as="geometry" />
        </mxCell>
        <mxCell id="MtWuQG_OQLCqCNwVCw_5-42" value="上传时间" style="ellipse;whiteSpace=wrap;html=1;align=center;verticalAlign=top;spacingLeft=4;spacingRight=4;fontFamily=Helvetica;fontSize=12;fontColor=default;resizable=0;fillColor=none;" parent="1" vertex="1">
          <mxGeometry x="700" y="315" width="100" height="40" as="geometry" />
        </mxCell>
        <mxCell id="MtWuQG_OQLCqCNwVCw_5-44" value="文件格式" style="ellipse;whiteSpace=wrap;html=1;align=center;verticalAlign=top;spacingLeft=4;spacingRight=4;fontFamily=Helvetica;fontSize=12;fontColor=default;resizable=0;fillColor=none;" parent="1" vertex="1">
          <mxGeometry x="700" y="365" width="100" height="40" as="geometry" />
        </mxCell>
        <mxCell id="MtWuQG_OQLCqCNwVCw_5-45" value="" style="endArrow=none;html=1;rounded=0;fontFamily=Helvetica;fontSize=12;fontColor=default;resizable=0;exitX=0.5;exitY=1;exitDx=0;exitDy=0;" parent="1" source="MtWuQG_OQLCqCNwVCw_5-40" target="MtWuQG_OQLCqCNwVCw_5-39" edge="1">
          <mxGeometry relative="1" as="geometry">
            <mxPoint x="610" y="525" as="sourcePoint" />
            <mxPoint x="770" y="525" as="targetPoint" />
          </mxGeometry>
        </mxCell>
        <mxCell id="MtWuQG_OQLCqCNwVCw_5-46" value="" style="endArrow=none;html=1;rounded=0;fontFamily=Helvetica;fontSize=12;fontColor=default;resizable=0;entryX=1;entryY=0.5;entryDx=0;entryDy=0;" parent="1" source="MtWuQG_OQLCqCNwVCw_5-42" target="MtWuQG_OQLCqCNwVCw_5-39" edge="1">
          <mxGeometry relative="1" as="geometry">
            <mxPoint x="610" y="525" as="sourcePoint" />
            <mxPoint x="770" y="525" as="targetPoint" />
          </mxGeometry>
        </mxCell>
        <mxCell id="MtWuQG_OQLCqCNwVCw_5-47" value="" style="endArrow=none;html=1;rounded=0;fontFamily=Helvetica;fontSize=12;fontColor=default;resizable=0;exitX=0.5;exitY=1;exitDx=0;exitDy=0;entryX=1;entryY=0.25;entryDx=0;entryDy=0;" parent="1" source="MtWuQG_OQLCqCNwVCw_5-41" target="MtWuQG_OQLCqCNwVCw_5-39" edge="1">
          <mxGeometry relative="1" as="geometry">
            <mxPoint x="610" y="525" as="sourcePoint" />
            <mxPoint x="770" y="525" as="targetPoint" />
          </mxGeometry>
        </mxCell>
        <mxCell id="MtWuQG_OQLCqCNwVCw_5-48" value="" style="endArrow=none;html=1;rounded=0;fontFamily=Helvetica;fontSize=12;fontColor=default;resizable=0;entryX=1;entryY=0.75;entryDx=0;entryDy=0;" parent="1" source="MtWuQG_OQLCqCNwVCw_5-44" target="MtWuQG_OQLCqCNwVCw_5-39" edge="1">
          <mxGeometry relative="1" as="geometry">
            <mxPoint x="610" y="525" as="sourcePoint" />
            <mxPoint x="770" y="525" as="targetPoint" />
          </mxGeometry>
        </mxCell>
        <mxCell id="MtWuQG_OQLCqCNwVCw_5-50" value="段落表" style="rounded=1;whiteSpace=wrap;html=1;" parent="1" vertex="1">
          <mxGeometry x="500" y="540" width="120" height="60" as="geometry" />
        </mxCell>
        <mxCell id="MtWuQG_OQLCqCNwVCw_5-51" value="段落顺序" style="ellipse;whiteSpace=wrap;html=1;align=center;verticalAlign=top;spacingLeft=4;spacingRight=4;fontFamily=Helvetica;fontSize=12;fontColor=default;resizable=0;fillColor=none;" parent="1" vertex="1">
          <mxGeometry x="690" y="464" width="100" height="40" as="geometry" />
        </mxCell>
        <mxCell id="MtWuQG_OQLCqCNwVCw_5-52" value="段落 ID" style="ellipse;whiteSpace=wrap;html=1;align=center;verticalAlign=top;spacingLeft=4;spacingRight=4;fontFamily=Helvetica;fontSize=12;fontColor=default;resizable=0;fillColor=none;" parent="1" vertex="1">
          <mxGeometry x="710" y="515" width="100" height="40" as="geometry" />
        </mxCell>
        <mxCell id="MtWuQG_OQLCqCNwVCw_5-56" value="" style="endArrow=none;html=1;rounded=0;fontFamily=Helvetica;fontSize=12;fontColor=default;resizable=0;exitX=0;exitY=0.5;exitDx=0;exitDy=0;" parent="1" source="MtWuQG_OQLCqCNwVCw_5-51" target="MtWuQG_OQLCqCNwVCw_5-50" edge="1">
          <mxGeometry relative="1" as="geometry">
            <mxPoint x="230" y="530" as="sourcePoint" />
            <mxPoint x="450" y="569" as="targetPoint" />
          </mxGeometry>
        </mxCell>
        <mxCell id="MtWuQG_OQLCqCNwVCw_5-58" value="" style="endArrow=none;html=1;rounded=0;fontFamily=Helvetica;fontSize=12;fontColor=default;resizable=0;exitX=0;exitY=0.5;exitDx=0;exitDy=0;entryX=0.992;entryY=0.628;entryDx=0;entryDy=0;entryPerimeter=0;" parent="1" source="MtWuQG_OQLCqCNwVCw_5-52" target="MtWuQG_OQLCqCNwVCw_5-50" edge="1">
          <mxGeometry relative="1" as="geometry">
            <mxPoint x="290" y="569" as="sourcePoint" />
            <mxPoint x="450" y="569" as="targetPoint" />
          </mxGeometry>
        </mxCell>
        <mxCell id="MtWuQG_OQLCqCNwVCw_5-61" value="术语表" style="rounded=1;whiteSpace=wrap;html=1;" parent="1" vertex="1">
          <mxGeometry x="60" y="560" width="120" height="60" as="geometry" />
        </mxCell>
        <mxCell id="MtWuQG_OQLCqCNwVCw_5-62" value="术语ID" style="ellipse;whiteSpace=wrap;html=1;align=center;verticalAlign=top;spacingLeft=4;spacingRight=4;fontFamily=Helvetica;fontSize=12;fontColor=default;resizable=0;fillColor=none;" parent="1" vertex="1">
          <mxGeometry x="-100" y="530" width="100" height="40" as="geometry" />
        </mxCell>
        <mxCell id="MtWuQG_OQLCqCNwVCw_5-63" value="术语原文" style="ellipse;whiteSpace=wrap;html=1;align=center;verticalAlign=top;spacingLeft=4;spacingRight=4;fontFamily=Helvetica;fontSize=12;fontColor=default;resizable=0;fillColor=none;" parent="1" vertex="1">
          <mxGeometry x="-120" y="630" width="100" height="40" as="geometry" />
        </mxCell>
        <mxCell id="MtWuQG_OQLCqCNwVCw_5-64" value="术语定义" style="ellipse;whiteSpace=wrap;html=1;align=center;verticalAlign=top;spacingLeft=4;spacingRight=4;fontFamily=Helvetica;fontSize=12;fontColor=default;resizable=0;fillColor=none;" parent="1" vertex="1">
          <mxGeometry x="-120" y="575" width="100" height="40" as="geometry" />
        </mxCell>
        <mxCell id="MtWuQG_OQLCqCNwVCw_5-67" value="" style="endArrow=none;html=1;rounded=0;fontFamily=Helvetica;fontSize=12;fontColor=default;resizable=0;exitX=0.5;exitY=0;exitDx=0;exitDy=0;" parent="1" source="MtWuQG_OQLCqCNwVCw_5-62" target="MtWuQG_OQLCqCNwVCw_5-61" edge="1">
          <mxGeometry relative="1" as="geometry">
            <mxPoint x="-160" y="694" as="sourcePoint" />
            <mxPoint y="694" as="targetPoint" />
          </mxGeometry>
        </mxCell>
        <mxCell id="MtWuQG_OQLCqCNwVCw_5-68" value="" style="endArrow=none;html=1;rounded=0;fontFamily=Helvetica;fontSize=12;fontColor=default;resizable=0;entryX=0.419;entryY=1.017;entryDx=0;entryDy=0;entryPerimeter=0;exitX=0.757;exitY=0.058;exitDx=0;exitDy=0;exitPerimeter=0;" parent="1" source="MtWuQG_OQLCqCNwVCw_5-64" target="MtWuQG_OQLCqCNwVCw_5-61" edge="1">
          <mxGeometry relative="1" as="geometry">
            <mxPoint x="-154.85532108481834" y="616.7130332458125" as="sourcePoint" />
            <mxPoint y="694" as="targetPoint" />
          </mxGeometry>
        </mxCell>
        <mxCell id="MtWuQG_OQLCqCNwVCw_5-69" value="" style="endArrow=none;html=1;rounded=0;fontFamily=Helvetica;fontSize=12;fontColor=default;resizable=0;exitX=0.5;exitY=0;exitDx=0;exitDy=0;entryX=0;entryY=0.75;entryDx=0;entryDy=0;" parent="1" source="MtWuQG_OQLCqCNwVCw_5-63" edge="1" target="MtWuQG_OQLCqCNwVCw_5-61">
          <mxGeometry relative="1" as="geometry">
            <mxPoint x="-160" y="694" as="sourcePoint" />
            <mxPoint x="120" y="623" as="targetPoint" />
          </mxGeometry>
        </mxCell>
        <mxCell id="MtWuQG_OQLCqCNwVCw_5-94" value="翻译记忆库" style="rounded=1;whiteSpace=wrap;html=1;" parent="1" vertex="1">
          <mxGeometry x="220" y="555" width="120" height="60" as="geometry" />
        </mxCell>
        <mxCell id="MtWuQG_OQLCqCNwVCw_5-95" value="翻译记忆条目ID" style="ellipse;whiteSpace=wrap;html=1;align=center;verticalAlign=top;spacingLeft=4;spacingRight=4;fontFamily=Helvetica;fontSize=12;fontColor=default;resizable=0;fillColor=none;" parent="1" vertex="1">
          <mxGeometry x="435" y="640" width="100" height="40" as="geometry" />
        </mxCell>
        <mxCell id="MtWuQG_OQLCqCNwVCw_5-96" value="源文本" style="ellipse;whiteSpace=wrap;html=1;align=center;verticalAlign=top;spacingLeft=4;spacingRight=4;fontFamily=Helvetica;fontSize=12;fontColor=default;resizable=0;fillColor=none;" parent="1" vertex="1">
          <mxGeometry x="410" y="770" width="100" height="40" as="geometry" />
        </mxCell>
        <mxCell id="MtWuQG_OQLCqCNwVCw_5-97" value="译文" style="ellipse;whiteSpace=wrap;html=1;align=center;verticalAlign=top;spacingLeft=4;spacingRight=4;fontFamily=Helvetica;fontSize=12;fontColor=default;resizable=0;fillColor=none;" parent="1" vertex="1">
          <mxGeometry x="190" y="720" width="100" height="40" as="geometry" />
        </mxCell>
        <mxCell id="MtWuQG_OQLCqCNwVCw_5-100" value="" style="endArrow=none;html=1;rounded=0;fontFamily=Helvetica;fontSize=12;fontColor=default;resizable=0;exitX=0.5;exitY=0;exitDx=0;exitDy=0;" parent="1" source="MtWuQG_OQLCqCNwVCw_5-95" target="MtWuQG_OQLCqCNwVCw_5-94" edge="1">
          <mxGeometry relative="1" as="geometry">
            <mxPoint x="430" y="850" as="sourcePoint" />
            <mxPoint x="590" y="850" as="targetPoint" />
          </mxGeometry>
        </mxCell>
        <mxCell id="MtWuQG_OQLCqCNwVCw_5-101" value="" style="endArrow=none;html=1;rounded=0;fontFamily=Helvetica;fontSize=12;fontColor=default;resizable=0;entryX=0.331;entryY=0.972;entryDx=0;entryDy=0;entryPerimeter=0;" parent="1" source="MtWuQG_OQLCqCNwVCw_5-97" target="MtWuQG_OQLCqCNwVCw_5-94" edge="1">
          <mxGeometry relative="1" as="geometry">
            <mxPoint x="430" y="850" as="sourcePoint" />
            <mxPoint x="590" y="850" as="targetPoint" />
          </mxGeometry>
        </mxCell>
        <mxCell id="MtWuQG_OQLCqCNwVCw_5-102" value="" style="endArrow=none;html=1;rounded=0;fontFamily=Helvetica;fontSize=12;fontColor=default;resizable=0;exitX=0.5;exitY=0;exitDx=0;exitDy=0;entryX=0.5;entryY=1;entryDx=0;entryDy=0;" parent="1" source="MtWuQG_OQLCqCNwVCw_5-96" target="MtWuQG_OQLCqCNwVCw_5-94" edge="1">
          <mxGeometry relative="1" as="geometry">
            <mxPoint x="430" y="850" as="sourcePoint" />
            <mxPoint x="590" y="850" as="targetPoint" />
          </mxGeometry>
        </mxCell>
        <mxCell id="MtWuQG_OQLCqCNwVCw_5-106" value="包含&lt;div&gt;&lt;br&gt;&lt;/div&gt;" style="shape=rhombus;perimeter=rhombusPerimeter;whiteSpace=wrap;html=1;align=center;verticalAlign=top;spacingLeft=4;spacingRight=4;fontFamily=Helvetica;fontSize=12;fontColor=default;resizable=0;fillColor=none;" parent="1" vertex="1">
          <mxGeometry x="340" y="355" width="120" height="60" as="geometry" />
        </mxCell>
        <mxCell id="MtWuQG_OQLCqCNwVCw_5-107" value="包含" style="shape=rhombus;perimeter=rhombusPerimeter;whiteSpace=wrap;html=1;align=center;verticalAlign=top;spacingLeft=4;spacingRight=4;fontFamily=Helvetica;fontSize=12;fontColor=default;resizable=0;fillColor=none;" parent="1" vertex="1">
          <mxGeometry x="500" y="455" width="120" height="60" as="geometry" />
        </mxCell>
        <mxCell id="MtWuQG_OQLCqCNwVCw_5-108" value="关联" style="shape=rhombus;perimeter=rhombusPerimeter;whiteSpace=wrap;html=1;align=center;verticalAlign=top;spacingLeft=4;spacingRight=4;fontFamily=Helvetica;fontSize=12;fontColor=default;resizable=0;fillColor=none;" parent="1" vertex="1">
          <mxGeometry x="110" y="464" width="120" height="60" as="geometry" />
        </mxCell>
        <mxCell id="MtWuQG_OQLCqCNwVCw_5-109" value="包含" style="shape=rhombus;perimeter=rhombusPerimeter;whiteSpace=wrap;html=1;align=center;verticalAlign=top;spacingLeft=4;spacingRight=4;fontFamily=Helvetica;fontSize=12;fontColor=default;resizable=0;fillColor=none;" parent="1" vertex="1">
          <mxGeometry x="260" y="460" width="120" height="60" as="geometry" />
        </mxCell>
        <mxCell id="MtWuQG_OQLCqCNwVCw_5-115" value="" style="endArrow=none;html=1;rounded=0;fontFamily=Helvetica;fontSize=12;fontColor=default;resizable=0;entryX=0;entryY=0.5;entryDx=0;entryDy=0;" parent="1" target="MtWuQG_OQLCqCNwVCw_5-106" edge="1">
          <mxGeometry relative="1" as="geometry">
            <mxPoint x="290" y="384.5" as="sourcePoint" />
            <mxPoint x="450" y="384.5" as="targetPoint" />
          </mxGeometry>
        </mxCell>
        <mxCell id="MtWuQG_OQLCqCNwVCw_5-118" value="" style="endArrow=none;html=1;rounded=0;fontFamily=Helvetica;fontSize=12;fontColor=default;resizable=0;entryX=0.5;entryY=1;entryDx=0;entryDy=0;exitX=0.5;exitY=0;exitDx=0;exitDy=0;" parent="1" source="MtWuQG_OQLCqCNwVCw_5-107" target="MtWuQG_OQLCqCNwVCw_5-39" edge="1">
          <mxGeometry relative="1" as="geometry">
            <mxPoint x="360" y="470" as="sourcePoint" />
            <mxPoint x="340" y="385" as="targetPoint" />
          </mxGeometry>
        </mxCell>
        <mxCell id="MtWuQG_OQLCqCNwVCw_5-119" value="" style="endArrow=none;html=1;rounded=0;fontFamily=Helvetica;fontSize=12;fontColor=default;resizable=0;exitX=0;exitY=0.5;exitDx=0;exitDy=0;entryX=1;entryY=0.5;entryDx=0;entryDy=0;" parent="1" source="MtWuQG_OQLCqCNwVCw_5-39" target="MtWuQG_OQLCqCNwVCw_5-106" edge="1">
          <mxGeometry relative="1" as="geometry">
            <mxPoint x="260" y="560" as="sourcePoint" />
            <mxPoint x="420" y="560" as="targetPoint" />
          </mxGeometry>
        </mxCell>
        <mxCell id="MtWuQG_OQLCqCNwVCw_5-121" value="n" style="text;html=1;align=center;verticalAlign=middle;resizable=0;points=[];autosize=1;strokeColor=none;fillColor=none;fontFamily=Helvetica;fontSize=12;fontColor=default;" parent="1" vertex="1">
          <mxGeometry x="470" y="365" width="30" height="30" as="geometry" />
        </mxCell>
        <mxCell id="MtWuQG_OQLCqCNwVCw_5-122" value="" style="endArrow=none;html=1;rounded=0;fontFamily=Helvetica;fontSize=12;fontColor=default;resizable=0;entryX=0;entryY=0.3D0. 5;entryDx=0;entryDy=0;" parent="1" target="MtWuQG_OQLCqCNwVCw_5-120" edge="1">
          <mxGeometry relative="1" as="geometry">
            <mxPoint x="290" y="384.5" as="sourcePoint" />
            <mxPoint x="340" y="385" as="targetPoint" />
          </mxGeometry>
        </mxCell>
        <mxCell id="MtWuQG_OQLCqCNwVCw_5-120" value="1" style="text;html=1;align=center;verticalAlign=middle;resizable=0;points=[];autosize=1;strokeColor=none;fillColor=none;fontFamily=Helvetica;fontSize=12;fontColor=default;" parent="1" vertex="1">
          <mxGeometry x="290" y="365" width="30" height="30" as="geometry" />
        </mxCell>
        <mxCell id="MtWuQG_OQLCqCNwVCw_5-123" value="" style="endArrow=none;html=1;rounded=0;fontFamily=Helvetica;fontSize=12;fontColor=default;resizable=0;exitX=0.5;exitY=0;exitDx=0;exitDy=0;entryX=0.5;entryY=1;entryDx=0;entryDy=0;" parent="1" source="MtWuQG_OQLCqCNwVCw_5-50" target="MtWuQG_OQLCqCNwVCw_5-107" edge="1">
          <mxGeometry relative="1" as="geometry">
            <mxPoint x="300" y="394.5" as="sourcePoint" />
            <mxPoint x="570" y="520" as="targetPoint" />
          </mxGeometry>
        </mxCell>
        <mxCell id="MtWuQG_OQLCqCNwVCw_5-124" value="n" style="text;html=1;align=center;verticalAlign=middle;resizable=0;points=[];autosize=1;strokeColor=none;fillColor=none;fontFamily=Helvetica;fontSize=12;fontColor=default;" parent="1" vertex="1">
          <mxGeometry x="560" y="520" width="30" height="30" as="geometry" />
        </mxCell>
        <mxCell id="MtWuQG_OQLCqCNwVCw_5-125" value="1" style="text;html=1;align=center;verticalAlign=middle;resizable=0;points=[];autosize=1;strokeColor=none;fillColor=none;fontFamily=Helvetica;fontSize=12;fontColor=default;" parent="1" vertex="1">
          <mxGeometry x="560" y="420" width="30" height="30" as="geometry" />
        </mxCell>
        <mxCell id="MtWuQG_OQLCqCNwVCw_5-126" value="" style="endArrow=none;html=1;rounded=0;fontFamily=Helvetica;fontSize=12;fontColor=default;resizable=0;exitX=0.5;exitY=0;exitDx=0;exitDy=0;entryX=0.5;entryY=1;entryDx=0;entryDy=0;" parent="1" source="MtWuQG_OQLCqCNwVCw_5-61" target="MtWuQG_OQLCqCNwVCw_5-108" edge="1">
          <mxGeometry relative="1" as="geometry">
            <mxPoint x="240" y="550" as="sourcePoint" />
            <mxPoint x="400" y="550" as="targetPoint" />
          </mxGeometry>
        </mxCell>
        <mxCell id="MtWuQG_OQLCqCNwVCw_5-127" value="" style="endArrow=none;html=1;rounded=0;fontFamily=Helvetica;fontSize=12;fontColor=default;resizable=0;exitX=0.5;exitY=0;exitDx=0;exitDy=0;entryX=0.5;entryY=1;entryDx=0;entryDy=0;" parent="1" source="MtWuQG_OQLCqCNwVCw_5-108" target="MtWuQG_OQLCqCNwVCw_5-1" edge="1">
          <mxGeometry relative="1" as="geometry">
            <mxPoint x="240" y="550" as="sourcePoint" />
            <mxPoint x="400" y="550" as="targetPoint" />
          </mxGeometry>
        </mxCell>
        <mxCell id="MtWuQG_OQLCqCNwVCw_5-128" value="" style="endArrow=none;html=1;rounded=0;fontFamily=Helvetica;fontSize=12;fontColor=default;resizable=0;entryX=0.75;entryY=1;entryDx=0;entryDy=0;exitX=0.5;exitY=0;exitDx=0;exitDy=0;" parent="1" source="MtWuQG_OQLCqCNwVCw_5-109" target="MtWuQG_OQLCqCNwVCw_5-1" edge="1">
          <mxGeometry relative="1" as="geometry">
            <mxPoint x="240" y="650" as="sourcePoint" />
            <mxPoint x="570" y="600" as="targetPoint" />
          </mxGeometry>
        </mxCell>
        <mxCell id="MtWuQG_OQLCqCNwVCw_5-130" value="" style="endArrow=none;html=1;rounded=0;fontFamily=Helvetica;fontSize=12;fontColor=default;resizable=0;exitX=0.5;exitY=0;exitDx=0;exitDy=0;entryX=0.5;entryY=1;entryDx=0;entryDy=0;" parent="1" source="MtWuQG_OQLCqCNwVCw_5-94" target="MtWuQG_OQLCqCNwVCw_5-109" edge="1">
          <mxGeometry relative="1" as="geometry">
            <mxPoint x="360" y="565" as="sourcePoint" />
            <mxPoint x="400" y="650" as="targetPoint" />
          </mxGeometry>
        </mxCell>
        <mxCell id="MtWuQG_OQLCqCNwVCw_5-133" value="n" style="text;html=1;align=center;verticalAlign=middle;resizable=0;points=[];autosize=1;strokeColor=none;fillColor=none;fontFamily=Helvetica;fontSize=12;fontColor=default;" parent="1" vertex="1">
          <mxGeometry x="100" y="535" width="30" height="30" as="geometry" />
        </mxCell>
        <mxCell id="MtWuQG_OQLCqCNwVCw_5-134" value="1" style="text;html=1;align=center;verticalAlign=middle;resizable=0;points=[];autosize=1;strokeColor=none;fillColor=none;fontFamily=Helvetica;fontSize=12;fontColor=default;" parent="1" vertex="1">
          <mxGeometry x="275" y="415" width="30" height="30" as="geometry" />
        </mxCell>
        <mxCell id="MtWuQG_OQLCqCNwVCw_5-135" value="n" style="text;html=1;align=center;verticalAlign=middle;resizable=0;points=[];autosize=1;strokeColor=none;fillColor=none;fontFamily=Helvetica;fontSize=12;fontColor=default;" parent="1" vertex="1">
          <mxGeometry x="310" y="525" width="30" height="30" as="geometry" />
        </mxCell>
        <mxCell id="GQLATtN6Gv0IoLlRFun3-65" value="用户表" style="rounded=1;whiteSpace=wrap;html=1;" vertex="1" parent="1">
          <mxGeometry x="170" y="95" width="120" height="60" as="geometry" />
        </mxCell>
        <mxCell id="GQLATtN6Gv0IoLlRFun3-66" value="用户ID" style="ellipse;whiteSpace=wrap;html=1;align=center;verticalAlign=top;spacingLeft=4;spacingRight=4;fontFamily=Helvetica;fontSize=12;fontColor=default;resizable=0;fillColor=none;" vertex="1" parent="1">
          <mxGeometry x="110" y="-20" width="100" height="40" as="geometry" />
        </mxCell>
        <mxCell id="GQLATtN6Gv0IoLlRFun3-67" value="用户名" style="ellipse;whiteSpace=wrap;html=1;align=center;verticalAlign=top;spacingLeft=4;spacingRight=4;fontFamily=Helvetica;fontSize=12;fontColor=default;resizable=0;fillColor=none;" vertex="1" parent="1">
          <mxGeometry x="60" y="30" width="100" height="40" as="geometry" />
        </mxCell>
        <mxCell id="GQLATtN6Gv0IoLlRFun3-68" value="创建时间" style="ellipse;whiteSpace=wrap;html=1;align=center;verticalAlign=top;spacingLeft=4;spacingRight=4;fontFamily=Helvetica;fontSize=12;fontColor=default;resizable=0;fillColor=none;" vertex="1" parent="1">
          <mxGeometry x="20" y="80" width="100" height="40" as="geometry" />
        </mxCell>
        <mxCell id="GQLATtN6Gv0IoLlRFun3-69" value="加密后的密码" style="ellipse;whiteSpace=wrap;html=1;align=center;verticalAlign=top;spacingLeft=4;spacingRight=4;fontFamily=Helvetica;fontSize=12;fontColor=default;resizable=0;fillColor=none;" vertex="1" parent="1">
          <mxGeometry x="210" y="-10" width="100" height="40" as="geometry" />
        </mxCell>
        <mxCell id="GQLATtN6Gv0IoLlRFun3-70" value="用户角色" style="ellipse;whiteSpace=wrap;html=1;align=center;verticalAlign=top;spacingLeft=4;spacingRight=4;fontFamily=Helvetica;fontSize=12;fontColor=default;resizable=0;fillColor=none;" vertex="1" parent="1">
          <mxGeometry x="30" y="145" width="100" height="40" as="geometry" />
        </mxCell>
        <mxCell id="GQLATtN6Gv0IoLlRFun3-71" value="" style="endArrow=none;html=1;rounded=0;fontFamily=Helvetica;fontSize=12;fontColor=default;resizable=0;exitX=0.5;exitY=1;exitDx=0;exitDy=0;" edge="1" parent="1" source="GQLATtN6Gv0IoLlRFun3-66" target="GQLATtN6Gv0IoLlRFun3-65">
          <mxGeometry relative="1" as="geometry">
            <mxPoint x="130" y="195" as="sourcePoint" />
            <mxPoint x="290" y="195" as="targetPoint" />
          </mxGeometry>
        </mxCell>
        <mxCell id="GQLATtN6Gv0IoLlRFun3-72" value="" style="endArrow=none;html=1;rounded=0;fontFamily=Helvetica;fontSize=12;fontColor=default;resizable=0;entryX=0;entryY=0.75;entryDx=0;entryDy=0;" edge="1" parent="1" source="GQLATtN6Gv0IoLlRFun3-68" target="GQLATtN6Gv0IoLlRFun3-65">
          <mxGeometry relative="1" as="geometry">
            <mxPoint x="130" y="195" as="sourcePoint" />
            <mxPoint x="290" y="195" as="targetPoint" />
          </mxGeometry>
        </mxCell>
        <mxCell id="GQLATtN6Gv0IoLlRFun3-73" value="" style="endArrow=none;html=1;rounded=0;fontFamily=Helvetica;fontSize=12;fontColor=default;resizable=0;exitX=0.5;exitY=1;exitDx=0;exitDy=0;entryX=0;entryY=0.5;entryDx=0;entryDy=0;" edge="1" parent="1" source="GQLATtN6Gv0IoLlRFun3-67" target="GQLATtN6Gv0IoLlRFun3-65">
          <mxGeometry relative="1" as="geometry">
            <mxPoint x="130" y="195" as="sourcePoint" />
            <mxPoint x="290" y="195" as="targetPoint" />
          </mxGeometry>
        </mxCell>
        <mxCell id="GQLATtN6Gv0IoLlRFun3-74" value="" style="endArrow=none;html=1;rounded=0;fontFamily=Helvetica;fontSize=12;fontColor=default;resizable=0;entryX=0.25;entryY=1;entryDx=0;entryDy=0;" edge="1" parent="1" source="GQLATtN6Gv0IoLlRFun3-70" target="GQLATtN6Gv0IoLlRFun3-65">
          <mxGeometry relative="1" as="geometry">
            <mxPoint x="130" y="195" as="sourcePoint" />
            <mxPoint x="290" y="195" as="targetPoint" />
          </mxGeometry>
        </mxCell>
        <mxCell id="GQLATtN6Gv0IoLlRFun3-75" value="" style="endArrow=none;html=1;rounded=0;fontFamily=Helvetica;fontSize=12;fontColor=default;resizable=0;exitX=0.5;exitY=1;exitDx=0;exitDy=0;entryX=0.5;entryY=0;entryDx=0;entryDy=0;" edge="1" parent="1" source="GQLATtN6Gv0IoLlRFun3-69" target="GQLATtN6Gv0IoLlRFun3-65">
          <mxGeometry relative="1" as="geometry">
            <mxPoint x="130" y="195" as="sourcePoint" />
            <mxPoint x="290" y="195" as="targetPoint" />
          </mxGeometry>
        </mxCell>
        <mxCell id="GQLATtN6Gv0IoLlRFun3-76" value="1" style="edgeLabel;html=1;align=center;verticalAlign=middle;resizable=0;points=[];spacingLeft=4;spacingRight=4;fontFamily=Helvetica;fontSize=12;fontColor=default;fillColor=none;" vertex="1" connectable="0" parent="1">
          <mxGeometry x="230.00283304318958" y="184.9979405472267" as="geometry">
            <mxPoint x="-12" as="offset" />
          </mxGeometry>
        </mxCell>
        <mxCell id="GQLATtN6Gv0IoLlRFun3-77" value="" style="endArrow=none;html=1;rounded=0;fontFamily=Helvetica;fontSize=12;fontColor=default;resizable=0;entryX=0;entryY=0.3D0. 5;entryDx=0;entryDy=0;" edge="1" parent="1">
          <mxGeometry relative="1" as="geometry">
            <mxPoint x="290" y="124.5" as="sourcePoint" />
            <mxPoint x="290" y="114" as="targetPoint" />
          </mxGeometry>
        </mxCell>
        <mxCell id="GQLATtN6Gv0IoLlRFun3-79" value="1" style="text;html=1;align=center;verticalAlign=middle;resizable=0;points=[];autosize=1;strokeColor=none;fillColor=none;fontFamily=Helvetica;fontSize=12;fontColor=default;" vertex="1" parent="1">
          <mxGeometry x="200" y="425" width="30" height="30" as="geometry" />
        </mxCell>
        <mxCell id="GQLATtN6Gv0IoLlRFun3-80" value="源语言" style="ellipse;whiteSpace=wrap;html=1;align=center;" vertex="1" parent="1">
          <mxGeometry x="325" y="250" width="100" height="40" as="geometry" />
        </mxCell>
        <mxCell id="GQLATtN6Gv0IoLlRFun3-81" value="目标语言" style="ellipse;whiteSpace=wrap;html=1;align=center;" vertex="1" parent="1">
          <mxGeometry x="325" y="310" width="100" height="40" as="geometry" />
        </mxCell>
        <mxCell id="GQLATtN6Gv0IoLlRFun3-82" value="" style="endArrow=none;html=1;rounded=0;entryX=0;entryY=1;entryDx=0;entryDy=0;" edge="1" parent="1" source="MtWuQG_OQLCqCNwVCw_5-1" target="GQLATtN6Gv0IoLlRFun3-80">
          <mxGeometry relative="1" as="geometry">
            <mxPoint x="170" y="350" as="sourcePoint" />
            <mxPoint x="330" y="350" as="targetPoint" />
          </mxGeometry>
        </mxCell>
        <mxCell id="GQLATtN6Gv0IoLlRFun3-83" value="" style="endArrow=none;html=1;rounded=0;entryX=0;entryY=0.5;entryDx=0;entryDy=0;" edge="1" parent="1" source="MtWuQG_OQLCqCNwVCw_5-1" target="GQLATtN6Gv0IoLlRFun3-81">
          <mxGeometry relative="1" as="geometry">
            <mxPoint x="170" y="350" as="sourcePoint" />
            <mxPoint x="330" y="350" as="targetPoint" />
          </mxGeometry>
        </mxCell>
        <mxCell id="GQLATtN6Gv0IoLlRFun3-84" value="原文" style="ellipse;whiteSpace=wrap;html=1;align=center;" vertex="1" parent="1">
          <mxGeometry x="690" y="565" width="100" height="40" as="geometry" />
        </mxCell>
        <mxCell id="GQLATtN6Gv0IoLlRFun3-85" value="用户翻译内容" style="ellipse;whiteSpace=wrap;html=1;align=center;" vertex="1" parent="1">
          <mxGeometry x="690" y="620" width="100" height="40" as="geometry" />
        </mxCell>
        <mxCell id="GQLATtN6Gv0IoLlRFun3-86" value="机器翻译内容" style="ellipse;whiteSpace=wrap;html=1;align=center;" vertex="1" parent="1">
          <mxGeometry x="710" y="690" width="100" height="40" as="geometry" />
        </mxCell>
        <mxCell id="GQLATtN6Gv0IoLlRFun3-87" value="状态" style="ellipse;whiteSpace=wrap;html=1;align=center;" vertex="1" parent="1">
          <mxGeometry x="705" y="740" width="100" height="40" as="geometry" />
        </mxCell>
        <mxCell id="GQLATtN6Gv0IoLlRFun3-89" value="应用领域" style="ellipse;whiteSpace=wrap;html=1;align=center;" vertex="1" parent="1">
          <mxGeometry x="260" y="770" width="100" height="40" as="geometry" />
        </mxCell>
        <mxCell id="GQLATtN6Gv0IoLlRFun3-90" value="创建时间" style="ellipse;whiteSpace=wrap;html=1;align=center;" vertex="1" parent="1">
          <mxGeometry x="425" y="710" width="100" height="40" as="geometry" />
        </mxCell>
        <mxCell id="GQLATtN6Gv0IoLlRFun3-91" value="对应译文" style="ellipse;whiteSpace=wrap;html=1;align=center;" vertex="1" parent="1">
          <mxGeometry x="90" y="680" width="100" height="40" as="geometry" />
        </mxCell>
        <mxCell id="GQLATtN6Gv0IoLlRFun3-92" value="术语领域" style="ellipse;whiteSpace=wrap;html=1;align=center;" vertex="1" parent="1">
          <mxGeometry x="-35" y="670" width="100" height="40" as="geometry" />
        </mxCell>
        <mxCell id="GQLATtN6Gv0IoLlRFun3-93" value="操作记录表" style="rounded=1;whiteSpace=wrap;html=1;" vertex="1" parent="1">
          <mxGeometry x="510" y="130" width="120" height="60" as="geometry" />
        </mxCell>
        <mxCell id="GQLATtN6Gv0IoLlRFun3-94" value="日志ID" style="ellipse;whiteSpace=wrap;html=1;align=center;verticalAlign=top;spacingLeft=4;spacingRight=4;fontFamily=Helvetica;fontSize=12;fontColor=default;resizable=0;fillColor=none;" vertex="1" parent="1">
          <mxGeometry x="450" y="15" width="100" height="40" as="geometry" />
        </mxCell>
        <mxCell id="GQLATtN6Gv0IoLlRFun3-95" value="操作用户" style="ellipse;whiteSpace=wrap;html=1;align=center;verticalAlign=top;spacingLeft=4;spacingRight=4;fontFamily=Helvetica;fontSize=12;fontColor=default;resizable=0;fillColor=none;" vertex="1" parent="1">
          <mxGeometry x="400" y="65" width="100" height="40" as="geometry" />
        </mxCell>
        <mxCell id="GQLATtN6Gv0IoLlRFun3-96" value="操作行为" style="ellipse;whiteSpace=wrap;html=1;align=center;verticalAlign=top;spacingLeft=4;spacingRight=4;fontFamily=Helvetica;fontSize=12;fontColor=default;resizable=0;fillColor=none;" vertex="1" parent="1">
          <mxGeometry x="360" y="115" width="100" height="40" as="geometry" />
        </mxCell>
        <mxCell id="GQLATtN6Gv0IoLlRFun3-97" value="对象ID" style="ellipse;whiteSpace=wrap;html=1;align=center;verticalAlign=top;spacingLeft=4;spacingRight=4;fontFamily=Helvetica;fontSize=12;fontColor=default;resizable=0;fillColor=none;" vertex="1" parent="1">
          <mxGeometry x="550" y="25" width="100" height="40" as="geometry" />
        </mxCell>
        <mxCell id="GQLATtN6Gv0IoLlRFun3-98" value="操作对象类型" style="ellipse;whiteSpace=wrap;html=1;align=center;verticalAlign=top;spacingLeft=4;spacingRight=4;fontFamily=Helvetica;fontSize=12;fontColor=default;resizable=0;fillColor=none;" vertex="1" parent="1">
          <mxGeometry x="370" y="180" width="100" height="40" as="geometry" />
        </mxCell>
        <mxCell id="GQLATtN6Gv0IoLlRFun3-99" value="" style="endArrow=none;html=1;rounded=0;fontFamily=Helvetica;fontSize=12;fontColor=default;resizable=0;exitX=0.5;exitY=1;exitDx=0;exitDy=0;" edge="1" parent="1" source="GQLATtN6Gv0IoLlRFun3-94" target="GQLATtN6Gv0IoLlRFun3-93">
          <mxGeometry relative="1" as="geometry">
            <mxPoint x="470" y="230" as="sourcePoint" />
            <mxPoint x="630" y="230" as="targetPoint" />
          </mxGeometry>
        </mxCell>
        <mxCell id="GQLATtN6Gv0IoLlRFun3-100" value="" style="endArrow=none;html=1;rounded=0;fontFamily=Helvetica;fontSize=12;fontColor=default;resizable=0;entryX=0;entryY=0.75;entryDx=0;entryDy=0;" edge="1" parent="1" source="GQLATtN6Gv0IoLlRFun3-96" target="GQLATtN6Gv0IoLlRFun3-93">
          <mxGeometry relative="1" as="geometry">
            <mxPoint x="470" y="230" as="sourcePoint" />
            <mxPoint x="630" y="230" as="targetPoint" />
          </mxGeometry>
        </mxCell>
        <mxCell id="GQLATtN6Gv0IoLlRFun3-101" value="" style="endArrow=none;html=1;rounded=0;fontFamily=Helvetica;fontSize=12;fontColor=default;resizable=0;exitX=0.5;exitY=1;exitDx=0;exitDy=0;entryX=0;entryY=0.5;entryDx=0;entryDy=0;" edge="1" parent="1" source="GQLATtN6Gv0IoLlRFun3-95" target="GQLATtN6Gv0IoLlRFun3-93">
          <mxGeometry relative="1" as="geometry">
            <mxPoint x="470" y="230" as="sourcePoint" />
            <mxPoint x="630" y="230" as="targetPoint" />
          </mxGeometry>
        </mxCell>
        <mxCell id="GQLATtN6Gv0IoLlRFun3-102" value="" style="endArrow=none;html=1;rounded=0;fontFamily=Helvetica;fontSize=12;fontColor=default;resizable=0;entryX=0.386;entryY=0.967;entryDx=0;entryDy=0;entryPerimeter=0;" edge="1" parent="1" source="GQLATtN6Gv0IoLlRFun3-98" target="GQLATtN6Gv0IoLlRFun3-93">
          <mxGeometry relative="1" as="geometry">
            <mxPoint x="470" y="230" as="sourcePoint" />
            <mxPoint x="630" y="230" as="targetPoint" />
          </mxGeometry>
        </mxCell>
        <mxCell id="GQLATtN6Gv0IoLlRFun3-103" value="" style="endArrow=none;html=1;rounded=0;fontFamily=Helvetica;fontSize=12;fontColor=default;resizable=0;exitX=0.5;exitY=1;exitDx=0;exitDy=0;entryX=0.5;entryY=0;entryDx=0;entryDy=0;" edge="1" parent="1" source="GQLATtN6Gv0IoLlRFun3-97" target="GQLATtN6Gv0IoLlRFun3-93">
          <mxGeometry relative="1" as="geometry">
            <mxPoint x="470" y="230" as="sourcePoint" />
            <mxPoint x="630" y="230" as="targetPoint" />
          </mxGeometry>
        </mxCell>
        <mxCell id="GQLATtN6Gv0IoLlRFun3-105" value="" style="endArrow=none;html=1;rounded=0;fontFamily=Helvetica;fontSize=12;fontColor=default;resizable=0;entryX=0;entryY=0.3D0. 5;entryDx=0;entryDy=0;" edge="1" parent="1">
          <mxGeometry relative="1" as="geometry">
            <mxPoint x="630" y="159.5" as="sourcePoint" />
            <mxPoint x="630" y="149" as="targetPoint" />
          </mxGeometry>
        </mxCell>
        <mxCell id="GQLATtN6Gv0IoLlRFun3-108" value="操作时间" style="ellipse;whiteSpace=wrap;html=1;align=center;" vertex="1" parent="1">
          <mxGeometry x="630" y="65" width="100" height="40" as="geometry" />
        </mxCell>
        <mxCell id="GQLATtN6Gv0IoLlRFun3-109" value="创建" style="shape=rhombus;perimeter=rhombusPerimeter;whiteSpace=wrap;html=1;align=center;" vertex="1" parent="1">
          <mxGeometry x="170" y="195" width="120" height="60" as="geometry" />
        </mxCell>
        <mxCell id="GQLATtN6Gv0IoLlRFun3-110" value="" style="endArrow=none;html=1;rounded=0;exitX=0.5;exitY=1;exitDx=0;exitDy=0;" edge="1" parent="1" source="GQLATtN6Gv0IoLlRFun3-65" target="GQLATtN6Gv0IoLlRFun3-109">
          <mxGeometry relative="1" as="geometry">
            <mxPoint x="270" y="300" as="sourcePoint" />
            <mxPoint x="430" y="300" as="targetPoint" />
          </mxGeometry>
        </mxCell>
        <mxCell id="GQLATtN6Gv0IoLlRFun3-111" value="n" style="text;html=1;align=center;verticalAlign=middle;resizable=0;points=[];autosize=1;strokeColor=none;fillColor=none;" vertex="1" parent="1">
          <mxGeometry x="215" y="255" width="30" height="30" as="geometry" />
        </mxCell>
        <mxCell id="GQLATtN6Gv0IoLlRFun3-112" value="" style="endArrow=none;html=1;rounded=0;entryX=0;entryY=0.5;entryDx=0;entryDy=0;exitX=1;exitY=0.75;exitDx=0;exitDy=0;" edge="1" parent="1" source="MtWuQG_OQLCqCNwVCw_5-50" target="GQLATtN6Gv0IoLlRFun3-84">
          <mxGeometry relative="1" as="geometry">
            <mxPoint x="610" y="590" as="sourcePoint" />
            <mxPoint x="680" y="590" as="targetPoint" />
          </mxGeometry>
        </mxCell>
        <mxCell id="GQLATtN6Gv0IoLlRFun3-113" value="" style="endArrow=none;html=1;rounded=0;entryX=0;entryY=0.5;entryDx=0;entryDy=0;exitX=1;exitY=1;exitDx=0;exitDy=0;" edge="1" parent="1" source="MtWuQG_OQLCqCNwVCw_5-50" target="GQLATtN6Gv0IoLlRFun3-85">
          <mxGeometry relative="1" as="geometry">
            <mxPoint x="520" y="590" as="sourcePoint" />
            <mxPoint x="680" y="590" as="targetPoint" />
          </mxGeometry>
        </mxCell>
        <mxCell id="GQLATtN6Gv0IoLlRFun3-114" value="" style="endArrow=none;html=1;rounded=0;entryX=0;entryY=0.5;entryDx=0;entryDy=0;exitX=0.75;exitY=1;exitDx=0;exitDy=0;" edge="1" parent="1" source="MtWuQG_OQLCqCNwVCw_5-50" target="GQLATtN6Gv0IoLlRFun3-86">
          <mxGeometry relative="1" as="geometry">
            <mxPoint x="520" y="590" as="sourcePoint" />
            <mxPoint x="680" y="590" as="targetPoint" />
          </mxGeometry>
        </mxCell>
        <mxCell id="GQLATtN6Gv0IoLlRFun3-115" value="" style="endArrow=none;html=1;rounded=0;entryX=0;entryY=0.5;entryDx=0;entryDy=0;" edge="1" parent="1" source="MtWuQG_OQLCqCNwVCw_5-50" target="GQLATtN6Gv0IoLlRFun3-87">
          <mxGeometry relative="1" as="geometry">
            <mxPoint x="530" y="750" as="sourcePoint" />
            <mxPoint x="690" y="750" as="targetPoint" />
          </mxGeometry>
        </mxCell>
        <mxCell id="GQLATtN6Gv0IoLlRFun3-116" value="关联" style="shape=rhombus;perimeter=rhombusPerimeter;whiteSpace=wrap;html=1;align=center;" vertex="1" parent="1">
          <mxGeometry x="360" y="550" width="120" height="60" as="geometry" />
        </mxCell>
        <mxCell id="GQLATtN6Gv0IoLlRFun3-117" value="" style="endArrow=none;html=1;rounded=0;exitX=1;exitY=0.5;exitDx=0;exitDy=0;entryX=0;entryY=0.5;entryDx=0;entryDy=0;" edge="1" parent="1" source="MtWuQG_OQLCqCNwVCw_5-94" target="GQLATtN6Gv0IoLlRFun3-116">
          <mxGeometry relative="1" as="geometry">
            <mxPoint x="380" y="590" as="sourcePoint" />
            <mxPoint x="540" y="590" as="targetPoint" />
          </mxGeometry>
        </mxCell>
        <mxCell id="GQLATtN6Gv0IoLlRFun3-118" value="" style="endArrow=none;html=1;rounded=0;entryX=0;entryY=0.5;entryDx=0;entryDy=0;exitX=1;exitY=0.5;exitDx=0;exitDy=0;" edge="1" parent="1" source="GQLATtN6Gv0IoLlRFun3-116" target="MtWuQG_OQLCqCNwVCw_5-50">
          <mxGeometry relative="1" as="geometry">
            <mxPoint x="380" y="590" as="sourcePoint" />
            <mxPoint x="540" y="590" as="targetPoint" />
          </mxGeometry>
        </mxCell>
        <mxCell id="GQLATtN6Gv0IoLlRFun3-120" value="1" style="text;html=1;align=center;verticalAlign=middle;resizable=0;points=[];autosize=1;strokeColor=none;fillColor=none;" vertex="1" parent="1">
          <mxGeometry x="330" y="560" width="30" height="30" as="geometry" />
        </mxCell>
        <mxCell id="GQLATtN6Gv0IoLlRFun3-121" value="1" style="text;html=1;align=center;verticalAlign=middle;resizable=0;points=[];autosize=1;strokeColor=none;fillColor=none;" vertex="1" parent="1">
          <mxGeometry x="470" y="550" width="30" height="30" as="geometry" />
        </mxCell>
        <mxCell id="GQLATtN6Gv0IoLlRFun3-124" value="" style="endArrow=none;html=1;rounded=0;exitX=0.5;exitY=0;exitDx=0;exitDy=0;" edge="1" parent="1" source="GQLATtN6Gv0IoLlRFun3-92">
          <mxGeometry relative="1" as="geometry">
            <mxPoint y="590" as="sourcePoint" />
            <mxPoint x="110" y="620" as="targetPoint" />
          </mxGeometry>
        </mxCell>
        <mxCell id="GQLATtN6Gv0IoLlRFun3-125" value="" style="endArrow=none;html=1;rounded=0;entryX=0.75;entryY=1;entryDx=0;entryDy=0;" edge="1" parent="1" source="GQLATtN6Gv0IoLlRFun3-91" target="MtWuQG_OQLCqCNwVCw_5-61">
          <mxGeometry relative="1" as="geometry">
            <mxPoint y="590" as="sourcePoint" />
            <mxPoint x="160" y="590" as="targetPoint" />
          </mxGeometry>
        </mxCell>
        <mxCell id="GQLATtN6Gv0IoLlRFun3-126" value="" style="endArrow=none;html=1;rounded=0;entryX=0.343;entryY=-0.008;entryDx=0;entryDy=0;entryPerimeter=0;exitX=1;exitY=1;exitDx=0;exitDy=0;" edge="1" parent="1" source="MtWuQG_OQLCqCNwVCw_5-94" target="GQLATtN6Gv0IoLlRFun3-90">
          <mxGeometry relative="1" as="geometry">
            <mxPoint x="270" y="530" as="sourcePoint" />
            <mxPoint x="430" y="530" as="targetPoint" />
          </mxGeometry>
        </mxCell>
        <mxCell id="GQLATtN6Gv0IoLlRFun3-128" value="" style="endArrow=none;html=1;rounded=0;" edge="1" parent="1" source="MtWuQG_OQLCqCNwVCw_5-94" target="GQLATtN6Gv0IoLlRFun3-89">
          <mxGeometry relative="1" as="geometry">
            <mxPoint x="270" y="530" as="sourcePoint" />
            <mxPoint x="430" y="530" as="targetPoint" />
          </mxGeometry>
        </mxCell>
        <mxCell id="GQLATtN6Gv0IoLlRFun3-129" value="创建者" style="ellipse;whiteSpace=wrap;html=1;align=center;" vertex="1" parent="1">
          <mxGeometry x="320" y="730" width="100" height="40" as="geometry" />
        </mxCell>
        <mxCell id="GQLATtN6Gv0IoLlRFun3-130" value="" style="endArrow=none;html=1;rounded=0;entryX=0.5;entryY=0;entryDx=0;entryDy=0;" edge="1" parent="1" target="GQLATtN6Gv0IoLlRFun3-129">
          <mxGeometry relative="1" as="geometry">
            <mxPoint x="290" y="620" as="sourcePoint" />
            <mxPoint x="410" y="530" as="targetPoint" />
          </mxGeometry>
        </mxCell>
      </root>
    </mxGraphModel>
  </diagram>
</mxfile>
